# xmcd CD database file
#
# Track frame offsets:
#	150
#	15542
#	30599
#	47893
#
# Disc length: 939 seconds
#
# Revision: 0
# Processed by: cddbd v1.5.1PL0 Copyright (c) Steve Scherf et al.
# Submitted via: CDex 1.51
#
DISCID=2703a904
DTITLE=Mixed - Freundin Sommer Sound
DYEAR=2004
DGENRE=Jazz
TTITLE0=Jamie Cullum - I could have danced all night
TTITLE1=Jamie Cullum - These are the days
TTITLE2=Tim Brönner - So right. So wrong.
TTITLE3=Tim Brönner - Antonios Song
EXTD=YEAR: 2004
EXTT0=
EXTT1=
EXTT2=
EXTT3=
PLAYORDER=
